<mxfile host="Electron" agent="Mozilla/5.0 (X11; Linux x86_64) AppleWebKit/537.36 (KHTML, like Gecko) draw.io/26.0.3 Chrome/130.0.6723.137 Electron/33.2.1 Safari/537.36" version="26.0.3">
  <diagram name="Page-1" id="YMYDp9c3Cyj911cqA7Ix">
    <mxGraphModel dx="2097" dy="726" grid="1" gridSize="10" guides="1" tooltips="1" connect="1" arrows="1" fold="1" page="1" pageScale="1" pageWidth="850" pageHeight="1100" math="0" shadow="0">
      <root>
        <mxCell id="0" />
        <mxCell id="1" parent="0" />
        <mxCell id="e92Mt10qb9YVrok8DbHY-108" value="S&amp;amp;C Backend" style="shape=module;align=left;spacingLeft=20;align=center;verticalAlign=top;whiteSpace=wrap;html=1;" vertex="1" parent="1">
          <mxGeometry x="-47.5" y="110" width="787.5" height="507" as="geometry" />
        </mxCell>
        <mxCell id="PVoQKursZOhQ71wTzp3r-4" value="" style="rounded=0;whiteSpace=wrap;html=1;" parent="1" vertex="1">
          <mxGeometry x="170" y="610" width="20" height="20" as="geometry" />
        </mxCell>
        <mxCell id="PVoQKursZOhQ71wTzp3r-5" value="S&amp;amp;C Web App Instance" style="shape=module;align=left;spacingLeft=20;align=center;verticalAlign=top;whiteSpace=wrap;html=1;" parent="1" vertex="1">
          <mxGeometry x="150" y="690" width="100" height="50" as="geometry" />
        </mxCell>
        <mxCell id="PVoQKursZOhQ71wTzp3r-6" value="" style="shape=providedRequiredInterface;html=1;verticalLabelPosition=bottom;sketch=0;rotation=90;" parent="1" vertex="1">
          <mxGeometry x="170" y="650" width="20" height="20" as="geometry" />
        </mxCell>
        <mxCell id="PVoQKursZOhQ71wTzp3r-7" value="API" style="shape=module;align=left;spacingLeft=20;align=center;verticalAlign=top;whiteSpace=wrap;html=1;" parent="1" vertex="1">
          <mxGeometry x="150" y="480" width="100" height="50" as="geometry" />
        </mxCell>
        <mxCell id="PVoQKursZOhQ71wTzp3r-10" value="" style="endArrow=none;html=1;rounded=0;exitX=0;exitY=0.5;exitDx=0;exitDy=0;exitPerimeter=0;entryX=1;entryY=0.5;entryDx=0;entryDy=0;entryPerimeter=0;" parent="1" source="PVoQKursZOhQ71wTzp3r-6" edge="1" target="e92Mt10qb9YVrok8DbHY-109">
          <mxGeometry width="50" height="50" relative="1" as="geometry">
            <mxPoint x="180" y="600" as="sourcePoint" />
            <mxPoint x="180" y="590" as="targetPoint" />
          </mxGeometry>
        </mxCell>
        <mxCell id="PVoQKursZOhQ71wTzp3r-11" value="" style="endArrow=none;html=1;rounded=0;" parent="1" edge="1">
          <mxGeometry width="50" height="50" relative="1" as="geometry">
            <mxPoint x="179.95" y="690" as="sourcePoint" />
            <mxPoint x="179.95" y="670" as="targetPoint" />
          </mxGeometry>
        </mxCell>
        <mxCell id="PVoQKursZOhQ71wTzp3r-12" value="" style="rounded=0;whiteSpace=wrap;html=1;" parent="1" vertex="1">
          <mxGeometry x="370" y="610" width="20" height="20" as="geometry" />
        </mxCell>
        <mxCell id="PVoQKursZOhQ71wTzp3r-13" value="REST API" style="text;html=1;align=center;verticalAlign=middle;whiteSpace=wrap;rounded=0;" parent="1" vertex="1">
          <mxGeometry x="190" y="645" width="60" height="30" as="geometry" />
        </mxCell>
        <mxCell id="PVoQKursZOhQ71wTzp3r-14" value="Database" style="shape=module;align=left;spacingLeft=20;align=center;verticalAlign=top;whiteSpace=wrap;html=1;" parent="1" vertex="1">
          <mxGeometry x="350" y="690" width="100" height="50" as="geometry" />
        </mxCell>
        <mxCell id="PVoQKursZOhQ71wTzp3r-15" value="" style="shape=providedRequiredInterface;html=1;verticalLabelPosition=bottom;sketch=0;rotation=-90;" parent="1" vertex="1">
          <mxGeometry x="370" y="650" width="20" height="20" as="geometry" />
        </mxCell>
        <mxCell id="PVoQKursZOhQ71wTzp3r-16" value="" style="endArrow=none;html=1;rounded=0;" parent="1" edge="1">
          <mxGeometry width="50" height="50" relative="1" as="geometry">
            <mxPoint x="379.76" y="690" as="sourcePoint" />
            <mxPoint x="379.76" y="670" as="targetPoint" />
          </mxGeometry>
        </mxCell>
        <mxCell id="PVoQKursZOhQ71wTzp3r-17" value="" style="endArrow=none;html=1;rounded=0;exitX=0;exitY=0.5;exitDx=0;exitDy=0;exitPerimeter=0;entryX=1;entryY=0.5;entryDx=0;entryDy=0;entryPerimeter=0;" parent="1" edge="1">
          <mxGeometry width="50" height="50" relative="1" as="geometry">
            <mxPoint x="379.76" y="650" as="sourcePoint" />
            <mxPoint x="380" y="575" as="targetPoint" />
          </mxGeometry>
        </mxCell>
        <mxCell id="PVoQKursZOhQ71wTzp3r-19" value="" style="rounded=0;whiteSpace=wrap;html=1;" parent="1" vertex="1">
          <mxGeometry x="530" y="610" width="20" height="20" as="geometry" />
        </mxCell>
        <mxCell id="PVoQKursZOhQ71wTzp3r-20" value="Institutional Authenticator" style="shape=module;align=left;spacingLeft=20;align=center;verticalAlign=top;whiteSpace=wrap;html=1;" parent="1" vertex="1">
          <mxGeometry x="510" y="690" width="100" height="50" as="geometry" />
        </mxCell>
        <mxCell id="PVoQKursZOhQ71wTzp3r-21" value="" style="shape=providedRequiredInterface;html=1;verticalLabelPosition=bottom;sketch=0;rotation=-90;" parent="1" vertex="1">
          <mxGeometry x="530" y="650" width="20" height="20" as="geometry" />
        </mxCell>
        <mxCell id="PVoQKursZOhQ71wTzp3r-22" value="" style="endArrow=none;html=1;rounded=0;" parent="1" edge="1">
          <mxGeometry width="50" height="50" relative="1" as="geometry">
            <mxPoint x="539.76" y="690" as="sourcePoint" />
            <mxPoint x="539.76" y="670" as="targetPoint" />
          </mxGeometry>
        </mxCell>
        <mxCell id="PVoQKursZOhQ71wTzp3r-23" value="" style="endArrow=none;html=1;rounded=0;exitX=0;exitY=0.5;exitDx=0;exitDy=0;exitPerimeter=0;entryX=1;entryY=0.5;entryDx=0;entryDy=0;entryPerimeter=0;" parent="1" edge="1">
          <mxGeometry width="50" height="50" relative="1" as="geometry">
            <mxPoint x="539.76" y="650" as="sourcePoint" />
            <mxPoint x="540" y="575" as="targetPoint" />
          </mxGeometry>
        </mxCell>
        <mxCell id="PVoQKursZOhQ71wTzp3r-26" value="" style="ellipse;whiteSpace=wrap;html=1;aspect=fixed;" parent="1" vertex="1">
          <mxGeometry x="372.5" y="560" width="15" height="15" as="geometry" />
        </mxCell>
        <mxCell id="PVoQKursZOhQ71wTzp3r-28" value="Authentication Manager" style="shape=module;align=left;spacingLeft=20;align=center;verticalAlign=top;whiteSpace=wrap;html=1;" parent="1" vertex="1">
          <mxGeometry x="340" y="480" width="100" height="50" as="geometry" />
        </mxCell>
        <mxCell id="PVoQKursZOhQ71wTzp3r-31" value="" style="shape=providedRequiredInterface;html=1;verticalLabelPosition=bottom;sketch=0;rotation=-180;" parent="1" vertex="1">
          <mxGeometry x="290" y="497" width="20" height="20" as="geometry" />
        </mxCell>
        <mxCell id="PVoQKursZOhQ71wTzp3r-32" value="" style="endArrow=none;html=1;rounded=0;entryX=1;entryY=0.5;entryDx=0;entryDy=0;entryPerimeter=0;exitX=1;exitY=0.5;exitDx=0;exitDy=0;" parent="1" target="PVoQKursZOhQ71wTzp3r-31" edge="1" source="PVoQKursZOhQ71wTzp3r-7">
          <mxGeometry width="50" height="50" relative="1" as="geometry">
            <mxPoint x="200" y="480" as="sourcePoint" />
            <mxPoint x="250" y="430" as="targetPoint" />
          </mxGeometry>
        </mxCell>
        <mxCell id="PVoQKursZOhQ71wTzp3r-33" value="" style="endArrow=none;html=1;rounded=0;entryX=0;entryY=0.5;entryDx=0;entryDy=0;entryPerimeter=0;exitX=0.101;exitY=0.503;exitDx=0;exitDy=0;exitPerimeter=0;" parent="1" source="PVoQKursZOhQ71wTzp3r-28" target="PVoQKursZOhQ71wTzp3r-31" edge="1">
          <mxGeometry width="50" height="50" relative="1" as="geometry">
            <mxPoint x="330" y="510" as="sourcePoint" />
            <mxPoint x="380" y="460" as="targetPoint" />
          </mxGeometry>
        </mxCell>
        <mxCell id="PVoQKursZOhQ71wTzp3r-34" value="Authentication" style="text;html=1;align=center;verticalAlign=middle;whiteSpace=wrap;rounded=0;" parent="1" vertex="1">
          <mxGeometry x="270" y="512" width="60" height="30" as="geometry" />
        </mxCell>
        <mxCell id="PVoQKursZOhQ71wTzp3r-36" value="" style="shape=providedRequiredInterface;html=1;verticalLabelPosition=bottom;sketch=0;rotation=-90;" parent="1" vertex="1">
          <mxGeometry x="530" y="555" width="20" height="20" as="geometry" />
        </mxCell>
        <mxCell id="PVoQKursZOhQ71wTzp3r-37" value="" style="endArrow=none;html=1;rounded=0;entryX=1;entryY=0.5;entryDx=0;entryDy=0;exitX=1;exitY=0.5;exitDx=0;exitDy=0;exitPerimeter=0;" parent="1" source="PVoQKursZOhQ71wTzp3r-36" target="PVoQKursZOhQ71wTzp3r-28" edge="1">
          <mxGeometry width="50" height="50" relative="1" as="geometry">
            <mxPoint x="540" y="530" as="sourcePoint" />
            <mxPoint x="590" y="480" as="targetPoint" />
          </mxGeometry>
        </mxCell>
        <mxCell id="PVoQKursZOhQ71wTzp3r-38" value="Institutional Authentication" style="text;html=1;align=center;verticalAlign=middle;whiteSpace=wrap;rounded=0;" parent="1" vertex="1">
          <mxGeometry x="560" y="555" width="60" height="30" as="geometry" />
        </mxCell>
        <mxCell id="PVoQKursZOhQ71wTzp3r-39" value="Institutional Authentication" style="text;html=1;align=center;verticalAlign=middle;whiteSpace=wrap;rounded=0;" parent="1" vertex="1">
          <mxGeometry x="560" y="650" width="60" height="30" as="geometry" />
        </mxCell>
        <mxCell id="PVoQKursZOhQ71wTzp3r-41" value="" style="shape=requiredInterface;html=1;verticalLabelPosition=bottom;sketch=0;rotation=-125;" parent="1" vertex="1">
          <mxGeometry x="362.5" y="535" width="10" height="20" as="geometry" />
        </mxCell>
        <mxCell id="e92Mt10qb9YVrok8DbHY-1" value="" style="endArrow=none;html=1;rounded=0;entryX=0.25;entryY=1;entryDx=0;entryDy=0;exitX=1;exitY=0.5;exitDx=0;exitDy=0;exitPerimeter=0;" edge="1" parent="1" source="PVoQKursZOhQ71wTzp3r-41" target="PVoQKursZOhQ71wTzp3r-28">
          <mxGeometry width="50" height="50" relative="1" as="geometry">
            <mxPoint x="440" y="550" as="sourcePoint" />
            <mxPoint x="490" y="500" as="targetPoint" />
          </mxGeometry>
        </mxCell>
        <mxCell id="e92Mt10qb9YVrok8DbHY-2" value="Database" style="text;html=1;align=center;verticalAlign=middle;whiteSpace=wrap;rounded=0;" vertex="1" parent="1">
          <mxGeometry x="300" y="535" width="60" height="30" as="geometry" />
        </mxCell>
        <mxCell id="e92Mt10qb9YVrok8DbHY-3" value="Database" style="text;html=1;align=center;verticalAlign=middle;whiteSpace=wrap;rounded=0;" vertex="1" parent="1">
          <mxGeometry x="390" y="552.5" width="60" height="30" as="geometry" />
        </mxCell>
        <mxCell id="e92Mt10qb9YVrok8DbHY-4" value="Database" style="text;html=1;align=center;verticalAlign=middle;whiteSpace=wrap;rounded=0;" vertex="1" parent="1">
          <mxGeometry x="390" y="645" width="60" height="30" as="geometry" />
        </mxCell>
        <mxCell id="e92Mt10qb9YVrok8DbHY-5" value="Account Manager" style="shape=module;align=left;spacingLeft=20;align=center;verticalAlign=top;whiteSpace=wrap;html=1;" vertex="1" parent="1">
          <mxGeometry x="150" y="145" width="100" height="50" as="geometry" />
        </mxCell>
        <mxCell id="e92Mt10qb9YVrok8DbHY-6" value="" style="shape=providedRequiredInterface;html=1;verticalLabelPosition=bottom;sketch=0;rotation=90;" vertex="1" parent="1">
          <mxGeometry x="190" y="363" width="20" height="20" as="geometry" />
        </mxCell>
        <mxCell id="e92Mt10qb9YVrok8DbHY-9" value="" style="endArrow=none;html=1;rounded=0;entryX=1;entryY=0.5;entryDx=0;entryDy=0;entryPerimeter=0;exitX=0.5;exitY=0;exitDx=0;exitDy=0;" edge="1" parent="1" source="PVoQKursZOhQ71wTzp3r-7" target="e92Mt10qb9YVrok8DbHY-6">
          <mxGeometry width="50" height="50" relative="1" as="geometry">
            <mxPoint x="150" y="480" as="sourcePoint" />
            <mxPoint x="200" y="430" as="targetPoint" />
          </mxGeometry>
        </mxCell>
        <mxCell id="e92Mt10qb9YVrok8DbHY-10" value="" style="endArrow=none;html=1;rounded=0;entryX=0.5;entryY=1;entryDx=0;entryDy=0;exitX=0;exitY=0.5;exitDx=0;exitDy=0;exitPerimeter=0;" edge="1" parent="1" source="e92Mt10qb9YVrok8DbHY-6" target="e92Mt10qb9YVrok8DbHY-5">
          <mxGeometry width="50" height="50" relative="1" as="geometry">
            <mxPoint x="150" y="370" as="sourcePoint" />
            <mxPoint x="200" y="320" as="targetPoint" />
          </mxGeometry>
        </mxCell>
        <mxCell id="e92Mt10qb9YVrok8DbHY-11" value="Account" style="text;html=1;align=center;verticalAlign=middle;whiteSpace=wrap;rounded=0;" vertex="1" parent="1">
          <mxGeometry x="196" y="375" width="60" height="30" as="geometry" />
        </mxCell>
        <mxCell id="e92Mt10qb9YVrok8DbHY-12" value="" style="shape=requiredInterface;html=1;verticalLabelPosition=bottom;sketch=0;rotation=-120;" vertex="1" parent="1">
          <mxGeometry x="253" y="200" width="10" height="20" as="geometry" />
        </mxCell>
        <mxCell id="e92Mt10qb9YVrok8DbHY-13" value="" style="endArrow=none;html=1;rounded=0;entryX=1;entryY=1;entryDx=0;entryDy=0;exitX=1;exitY=0.5;exitDx=0;exitDy=0;exitPerimeter=0;" edge="1" parent="1" source="e92Mt10qb9YVrok8DbHY-12" target="e92Mt10qb9YVrok8DbHY-5">
          <mxGeometry width="50" height="50" relative="1" as="geometry">
            <mxPoint x="320" y="350" as="sourcePoint" />
            <mxPoint x="370" y="300" as="targetPoint" />
          </mxGeometry>
        </mxCell>
        <mxCell id="e92Mt10qb9YVrok8DbHY-14" value="Database" style="text;html=1;align=center;verticalAlign=middle;whiteSpace=wrap;rounded=0;" vertex="1" parent="1">
          <mxGeometry x="253" y="175" width="60" height="30" as="geometry" />
        </mxCell>
        <mxCell id="e92Mt10qb9YVrok8DbHY-15" value="Advertisement Manager" style="shape=module;align=left;spacingLeft=20;align=center;verticalAlign=top;whiteSpace=wrap;html=1;" vertex="1" parent="1">
          <mxGeometry x="330" y="140" width="100" height="50" as="geometry" />
        </mxCell>
        <mxCell id="e92Mt10qb9YVrok8DbHY-21" value="" style="shape=requiredInterface;html=1;verticalLabelPosition=bottom;sketch=0;rotation=-80;" vertex="1" parent="1">
          <mxGeometry x="400" y="200" width="10" height="20" as="geometry" />
        </mxCell>
        <mxCell id="e92Mt10qb9YVrok8DbHY-22" value="" style="endArrow=none;html=1;rounded=0;entryX=0.75;entryY=1;entryDx=0;entryDy=0;exitX=1;exitY=0.5;exitDx=0;exitDy=0;exitPerimeter=0;" edge="1" parent="1" source="e92Mt10qb9YVrok8DbHY-21" target="e92Mt10qb9YVrok8DbHY-15">
          <mxGeometry width="50" height="50" relative="1" as="geometry">
            <mxPoint x="525" y="370" as="sourcePoint" />
            <mxPoint x="430" y="310" as="targetPoint" />
          </mxGeometry>
        </mxCell>
        <mxCell id="e92Mt10qb9YVrok8DbHY-23" value="Database" style="text;html=1;align=center;verticalAlign=middle;whiteSpace=wrap;rounded=0;" vertex="1" parent="1">
          <mxGeometry x="372.5" y="207" width="60" height="30" as="geometry" />
        </mxCell>
        <mxCell id="e92Mt10qb9YVrok8DbHY-29" value="" style="shape=providedRequiredInterface;html=1;verticalLabelPosition=bottom;sketch=0;rotation=135;" vertex="1" parent="1">
          <mxGeometry x="290" y="390" width="20" height="20" as="geometry" />
        </mxCell>
        <mxCell id="e92Mt10qb9YVrok8DbHY-30" value="" style="endArrow=none;html=1;rounded=0;entryX=1;entryY=0.5;entryDx=0;entryDy=0;entryPerimeter=0;exitX=0.75;exitY=0;exitDx=0;exitDy=0;" edge="1" parent="1" source="PVoQKursZOhQ71wTzp3r-7" target="e92Mt10qb9YVrok8DbHY-29">
          <mxGeometry width="50" height="50" relative="1" as="geometry">
            <mxPoint x="220" y="460" as="sourcePoint" />
            <mxPoint x="270" y="410" as="targetPoint" />
          </mxGeometry>
        </mxCell>
        <mxCell id="e92Mt10qb9YVrok8DbHY-31" value="" style="endArrow=none;html=1;rounded=0;exitX=0;exitY=0.5;exitDx=0;exitDy=0;exitPerimeter=0;entryX=0.5;entryY=1;entryDx=0;entryDy=0;" edge="1" parent="1" source="e92Mt10qb9YVrok8DbHY-29" target="e92Mt10qb9YVrok8DbHY-15">
          <mxGeometry width="50" height="50" relative="1" as="geometry">
            <mxPoint x="320" y="410" as="sourcePoint" />
            <mxPoint x="370" y="360" as="targetPoint" />
          </mxGeometry>
        </mxCell>
        <mxCell id="e92Mt10qb9YVrok8DbHY-32" value="Advertisement" style="text;html=1;align=center;verticalAlign=middle;whiteSpace=wrap;rounded=0;" vertex="1" parent="1">
          <mxGeometry x="323" y="383" width="60" height="30" as="geometry" />
        </mxCell>
        <mxCell id="e92Mt10qb9YVrok8DbHY-33" value="Internship Manager" style="shape=module;align=left;spacingLeft=20;align=center;verticalAlign=top;whiteSpace=wrap;html=1;" vertex="1" parent="1">
          <mxGeometry x="540" y="200" width="160" height="55" as="geometry" />
        </mxCell>
        <mxCell id="e92Mt10qb9YVrok8DbHY-35" value="" style="shape=providedRequiredInterface;html=1;verticalLabelPosition=bottom;sketch=0;" vertex="1" parent="1">
          <mxGeometry x="193" y="360" width="20" height="20" as="geometry" />
        </mxCell>
        <mxCell id="e92Mt10qb9YVrok8DbHY-36" value="" style="endArrow=none;html=1;rounded=0;entryX=0.25;entryY=1;entryDx=0;entryDy=0;exitX=1;exitY=0.5;exitDx=0;exitDy=0;exitPerimeter=0;" edge="1" parent="1" source="e92Mt10qb9YVrok8DbHY-35" target="e92Mt10qb9YVrok8DbHY-15">
          <mxGeometry width="50" height="50" relative="1" as="geometry">
            <mxPoint x="250" y="390" as="sourcePoint" />
            <mxPoint x="300" y="340" as="targetPoint" />
          </mxGeometry>
        </mxCell>
        <mxCell id="e92Mt10qb9YVrok8DbHY-38" value="" style="endArrow=none;html=1;rounded=0;entryX=1;entryY=0.5;entryDx=0;entryDy=0;entryPerimeter=0;exitX=1;exitY=0.5;exitDx=0;exitDy=0;" edge="1" parent="1" source="e92Mt10qb9YVrok8DbHY-15" target="e92Mt10qb9YVrok8DbHY-50">
          <mxGeometry width="50" height="50" relative="1" as="geometry">
            <mxPoint x="470" y="340" as="sourcePoint" />
            <mxPoint x="490" y="330" as="targetPoint" />
          </mxGeometry>
        </mxCell>
        <mxCell id="e92Mt10qb9YVrok8DbHY-39" value="" style="endArrow=none;html=1;rounded=0;entryX=0.5;entryY=1;entryDx=0;entryDy=0;exitX=0;exitY=0.5;exitDx=0;exitDy=0;exitPerimeter=0;" edge="1" parent="1" source="e92Mt10qb9YVrok8DbHY-50" target="e92Mt10qb9YVrok8DbHY-33">
          <mxGeometry width="50" height="50" relative="1" as="geometry">
            <mxPoint x="510" y="330" as="sourcePoint" />
            <mxPoint x="540" y="290" as="targetPoint" />
          </mxGeometry>
        </mxCell>
        <mxCell id="e92Mt10qb9YVrok8DbHY-40" value="" style="shape=requiredInterface;html=1;verticalLabelPosition=bottom;sketch=0;rotation=-80;" vertex="1" parent="1">
          <mxGeometry x="670" y="264.25" width="10" height="20" as="geometry" />
        </mxCell>
        <mxCell id="e92Mt10qb9YVrok8DbHY-42" value="Database" style="text;html=1;align=center;verticalAlign=middle;whiteSpace=wrap;rounded=0;" vertex="1" parent="1">
          <mxGeometry x="680" y="272.75" width="60" height="30" as="geometry" />
        </mxCell>
        <mxCell id="e92Mt10qb9YVrok8DbHY-43" value="Internship" style="text;html=1;align=center;verticalAlign=middle;whiteSpace=wrap;rounded=0;" vertex="1" parent="1">
          <mxGeometry x="480" y="293" width="60" height="30" as="geometry" />
        </mxCell>
        <mxCell id="e92Mt10qb9YVrok8DbHY-45" value="" style="endArrow=none;html=1;rounded=0;exitX=0.891;exitY=0;exitDx=0;exitDy=0;exitPerimeter=0;entryX=1;entryY=0.5;entryDx=0;entryDy=0;entryPerimeter=0;" edge="1" parent="1" source="PVoQKursZOhQ71wTzp3r-7" target="e92Mt10qb9YVrok8DbHY-51">
          <mxGeometry width="50" height="50" relative="1" as="geometry">
            <mxPoint x="250" y="470" as="sourcePoint" />
            <mxPoint x="470" y="357" as="targetPoint" />
          </mxGeometry>
        </mxCell>
        <mxCell id="e92Mt10qb9YVrok8DbHY-46" value="" style="endArrow=none;html=1;rounded=0;entryX=0;entryY=0;entryDx=0;entryDy=35;entryPerimeter=0;exitX=1;exitY=0.5;exitDx=0;exitDy=0;exitPerimeter=0;" edge="1" parent="1" source="e92Mt10qb9YVrok8DbHY-35" target="e92Mt10qb9YVrok8DbHY-33">
          <mxGeometry width="50" height="50" relative="1" as="geometry">
            <mxPoint x="270" y="380" as="sourcePoint" />
            <mxPoint x="320" y="330" as="targetPoint" />
          </mxGeometry>
        </mxCell>
        <mxCell id="e92Mt10qb9YVrok8DbHY-47" value="Application Manager" style="shape=module;align=left;spacingLeft=20;align=center;verticalAlign=top;whiteSpace=wrap;html=1;" vertex="1" parent="1">
          <mxGeometry x="470" y="375" width="160" height="95" as="geometry" />
        </mxCell>
        <mxCell id="e92Mt10qb9YVrok8DbHY-48" value="" style="endArrow=none;html=1;rounded=0;entryX=0;entryY=0;entryDx=0;entryDy=15;entryPerimeter=0;exitX=1;exitY=0.5;exitDx=0;exitDy=0;exitPerimeter=0;" edge="1" parent="1" source="e92Mt10qb9YVrok8DbHY-35" target="e92Mt10qb9YVrok8DbHY-47">
          <mxGeometry width="50" height="50" relative="1" as="geometry">
            <mxPoint x="480" y="410" as="sourcePoint" />
            <mxPoint x="610" y="390" as="targetPoint" />
          </mxGeometry>
        </mxCell>
        <mxCell id="e92Mt10qb9YVrok8DbHY-50" value="" style="shape=providedRequiredInterface;html=1;verticalLabelPosition=bottom;sketch=0;rotation=-180;" vertex="1" parent="1">
          <mxGeometry x="490" y="320" width="20" height="20" as="geometry" />
        </mxCell>
        <mxCell id="e92Mt10qb9YVrok8DbHY-51" value="" style="shape=providedRequiredInterface;html=1;verticalLabelPosition=bottom;sketch=0;rotation=90;" vertex="1" parent="1">
          <mxGeometry x="493" y="323" width="20" height="20" as="geometry" />
        </mxCell>
        <mxCell id="e92Mt10qb9YVrok8DbHY-52" value="" style="endArrow=none;html=1;rounded=0;entryX=1;entryY=0.5;entryDx=0;entryDy=0;entryPerimeter=0;exitX=0.5;exitY=0;exitDx=0;exitDy=0;" edge="1" parent="1" source="e92Mt10qb9YVrok8DbHY-47" target="e92Mt10qb9YVrok8DbHY-51">
          <mxGeometry width="50" height="50" relative="1" as="geometry">
            <mxPoint x="540" y="410" as="sourcePoint" />
            <mxPoint x="590" y="360" as="targetPoint" />
          </mxGeometry>
        </mxCell>
        <mxCell id="e92Mt10qb9YVrok8DbHY-54" value="" style="shape=providedRequiredInterface;html=1;verticalLabelPosition=bottom;sketch=0;rotation=-210;" vertex="1" parent="1">
          <mxGeometry x="387.5" y="425" width="20" height="20" as="geometry" />
        </mxCell>
        <mxCell id="e92Mt10qb9YVrok8DbHY-55" value="" style="endArrow=none;html=1;rounded=0;entryX=0;entryY=0;entryDx=0;entryDy=35;entryPerimeter=0;exitX=0;exitY=0.5;exitDx=0;exitDy=0;exitPerimeter=0;" edge="1" parent="1" source="e92Mt10qb9YVrok8DbHY-54" target="e92Mt10qb9YVrok8DbHY-47">
          <mxGeometry width="50" height="50" relative="1" as="geometry">
            <mxPoint x="430" y="490" as="sourcePoint" />
            <mxPoint x="480" y="440" as="targetPoint" />
          </mxGeometry>
        </mxCell>
        <mxCell id="e92Mt10qb9YVrok8DbHY-56" value="" style="endArrow=none;html=1;rounded=0;entryX=1;entryY=0.5;entryDx=0;entryDy=0;entryPerimeter=0;exitX=1;exitY=0;exitDx=0;exitDy=0;" edge="1" parent="1" source="PVoQKursZOhQ71wTzp3r-7" target="e92Mt10qb9YVrok8DbHY-54">
          <mxGeometry width="50" height="50" relative="1" as="geometry">
            <mxPoint x="320" y="500" as="sourcePoint" />
            <mxPoint x="370" y="450" as="targetPoint" />
          </mxGeometry>
        </mxCell>
        <mxCell id="e92Mt10qb9YVrok8DbHY-57" value="Application" style="text;html=1;align=center;verticalAlign=middle;whiteSpace=wrap;rounded=0;" vertex="1" parent="1">
          <mxGeometry x="410" y="430" width="60" height="30" as="geometry" />
        </mxCell>
        <mxCell id="e92Mt10qb9YVrok8DbHY-58" value="" style="shape=providedRequiredInterface;html=1;verticalLabelPosition=bottom;sketch=0;rotation=-90;" vertex="1" parent="1">
          <mxGeometry x="293" y="494" width="20" height="20" as="geometry" />
        </mxCell>
        <mxCell id="e92Mt10qb9YVrok8DbHY-59" value="" style="endArrow=none;html=1;rounded=0;entryX=0.75;entryY=1;entryDx=0;entryDy=0;exitX=1;exitY=0.5;exitDx=0;exitDy=0;exitPerimeter=0;" edge="1" parent="1" source="e92Mt10qb9YVrok8DbHY-58" target="e92Mt10qb9YVrok8DbHY-5">
          <mxGeometry width="50" height="50" relative="1" as="geometry">
            <mxPoint x="100" y="420" as="sourcePoint" />
            <mxPoint x="150" y="330" as="targetPoint" />
          </mxGeometry>
        </mxCell>
        <mxCell id="e92Mt10qb9YVrok8DbHY-60" value="" style="shape=providedRequiredInterface;html=1;verticalLabelPosition=bottom;sketch=0;rotation=-180;" vertex="1" parent="1">
          <mxGeometry x="187" y="360" width="20" height="20" as="geometry" />
        </mxCell>
        <mxCell id="e92Mt10qb9YVrok8DbHY-61" value="Recommend.&lt;div&gt;Manager&lt;/div&gt;" style="shape=module;align=left;spacingLeft=20;align=center;verticalAlign=top;whiteSpace=wrap;html=1;" vertex="1" parent="1">
          <mxGeometry y="280" width="100" height="50" as="geometry" />
        </mxCell>
        <mxCell id="e92Mt10qb9YVrok8DbHY-62" value="" style="endArrow=none;html=1;rounded=0;entryX=1;entryY=0.5;entryDx=0;entryDy=0;entryPerimeter=0;exitX=1;exitY=0.75;exitDx=0;exitDy=0;" edge="1" parent="1" source="e92Mt10qb9YVrok8DbHY-61" target="e92Mt10qb9YVrok8DbHY-60">
          <mxGeometry width="50" height="50" relative="1" as="geometry">
            <mxPoint x="100" y="410" as="sourcePoint" />
            <mxPoint x="150" y="360" as="targetPoint" />
          </mxGeometry>
        </mxCell>
        <mxCell id="e92Mt10qb9YVrok8DbHY-63" value="" style="shape=providedRequiredInterface;html=1;verticalLabelPosition=bottom;sketch=0;rotation=-180;" vertex="1" parent="1">
          <mxGeometry x="289" y="388" width="20" height="20" as="geometry" />
        </mxCell>
        <mxCell id="e92Mt10qb9YVrok8DbHY-64" value="" style="endArrow=none;html=1;rounded=0;exitX=1;exitY=0.5;exitDx=0;exitDy=0;entryX=1;entryY=0.5;entryDx=0;entryDy=0;entryPerimeter=0;" edge="1" parent="1" source="e92Mt10qb9YVrok8DbHY-61" target="e92Mt10qb9YVrok8DbHY-63">
          <mxGeometry width="50" height="50" relative="1" as="geometry">
            <mxPoint x="150" y="370" as="sourcePoint" />
            <mxPoint x="200" y="320" as="targetPoint" />
          </mxGeometry>
        </mxCell>
        <mxCell id="e92Mt10qb9YVrok8DbHY-65" value="" style="endArrow=none;html=1;rounded=0;entryX=1;entryY=0.5;entryDx=0;entryDy=0;entryPerimeter=0;exitX=1.004;exitY=0.23;exitDx=0;exitDy=0;exitPerimeter=0;" edge="1" parent="1" source="e92Mt10qb9YVrok8DbHY-61" target="e92Mt10qb9YVrok8DbHY-50">
          <mxGeometry width="50" height="50" relative="1" as="geometry">
            <mxPoint x="420" y="390" as="sourcePoint" />
            <mxPoint x="470" y="340" as="targetPoint" />
          </mxGeometry>
        </mxCell>
        <mxCell id="e92Mt10qb9YVrok8DbHY-66" value="" style="shape=providedRequiredInterface;html=1;verticalLabelPosition=bottom;sketch=0;rotation=65;" vertex="1" parent="1">
          <mxGeometry x="70" y="385" width="20" height="20" as="geometry" />
        </mxCell>
        <mxCell id="e92Mt10qb9YVrok8DbHY-67" value="" style="endArrow=none;html=1;rounded=0;entryX=0.25;entryY=1;entryDx=0;entryDy=0;exitX=0;exitY=0.5;exitDx=0;exitDy=0;exitPerimeter=0;" edge="1" parent="1" source="e92Mt10qb9YVrok8DbHY-66" target="e92Mt10qb9YVrok8DbHY-61">
          <mxGeometry width="50" height="50" relative="1" as="geometry">
            <mxPoint x="60" y="350" as="sourcePoint" />
            <mxPoint x="110" y="380" as="targetPoint" />
          </mxGeometry>
        </mxCell>
        <mxCell id="e92Mt10qb9YVrok8DbHY-68" value="" style="endArrow=none;html=1;rounded=0;entryX=1;entryY=0.5;entryDx=0;entryDy=0;entryPerimeter=0;exitX=0.25;exitY=0;exitDx=0;exitDy=0;" edge="1" parent="1" source="PVoQKursZOhQ71wTzp3r-7" target="e92Mt10qb9YVrok8DbHY-66">
          <mxGeometry width="50" height="50" relative="1" as="geometry">
            <mxPoint x="90" y="490" as="sourcePoint" />
            <mxPoint x="140" y="440" as="targetPoint" />
          </mxGeometry>
        </mxCell>
        <mxCell id="e92Mt10qb9YVrok8DbHY-69" value="Recomm." style="text;html=1;align=center;verticalAlign=middle;whiteSpace=wrap;rounded=0;" vertex="1" parent="1">
          <mxGeometry x="20" y="390" width="60" height="30" as="geometry" />
        </mxCell>
        <mxCell id="e92Mt10qb9YVrok8DbHY-70" value="" style="shape=requiredInterface;html=1;verticalLabelPosition=bottom;sketch=0;rotation=-120;" vertex="1" parent="1">
          <mxGeometry x="70" y="337" width="10" height="20" as="geometry" />
        </mxCell>
        <mxCell id="e92Mt10qb9YVrok8DbHY-71" value="Database" style="text;html=1;align=center;verticalAlign=middle;whiteSpace=wrap;rounded=0;" vertex="1" parent="1">
          <mxGeometry x="70" y="345" width="60" height="30" as="geometry" />
        </mxCell>
        <mxCell id="e92Mt10qb9YVrok8DbHY-73" value="" style="endArrow=none;html=1;rounded=0;entryX=1;entryY=0.5;entryDx=0;entryDy=0;entryPerimeter=0;exitX=0.5;exitY=1;exitDx=0;exitDy=0;" edge="1" parent="1" source="e92Mt10qb9YVrok8DbHY-61" target="e92Mt10qb9YVrok8DbHY-70">
          <mxGeometry width="50" height="50" relative="1" as="geometry">
            <mxPoint x="10" y="420" as="sourcePoint" />
            <mxPoint x="60" y="370" as="targetPoint" />
          </mxGeometry>
        </mxCell>
        <mxCell id="e92Mt10qb9YVrok8DbHY-74" value="" style="shape=requiredInterface;html=1;verticalLabelPosition=bottom;sketch=0;rotation=-80;" vertex="1" parent="1">
          <mxGeometry x="570" y="505" width="10" height="20" as="geometry" />
        </mxCell>
        <mxCell id="e92Mt10qb9YVrok8DbHY-75" value="Database" style="text;html=1;align=center;verticalAlign=middle;whiteSpace=wrap;rounded=0;" vertex="1" parent="1">
          <mxGeometry x="585" y="500" width="60" height="30" as="geometry" />
        </mxCell>
        <mxCell id="e92Mt10qb9YVrok8DbHY-76" value="" style="endArrow=none;html=1;rounded=0;entryX=0.5;entryY=1;entryDx=0;entryDy=0;exitX=1;exitY=0.5;exitDx=0;exitDy=0;exitPerimeter=0;" edge="1" parent="1" source="e92Mt10qb9YVrok8DbHY-74" target="e92Mt10qb9YVrok8DbHY-47">
          <mxGeometry width="50" height="50" relative="1" as="geometry">
            <mxPoint x="440" y="520" as="sourcePoint" />
            <mxPoint x="490" y="470" as="targetPoint" />
          </mxGeometry>
        </mxCell>
        <mxCell id="e92Mt10qb9YVrok8DbHY-77" value="" style="endArrow=none;html=1;rounded=0;entryX=0.75;entryY=1;entryDx=0;entryDy=0;exitX=1;exitY=0.5;exitDx=0;exitDy=0;exitPerimeter=0;" edge="1" parent="1" source="e92Mt10qb9YVrok8DbHY-40" target="e92Mt10qb9YVrok8DbHY-33">
          <mxGeometry width="50" height="50" relative="1" as="geometry">
            <mxPoint x="570" y="330" as="sourcePoint" />
            <mxPoint x="620" y="280" as="targetPoint" />
          </mxGeometry>
        </mxCell>
        <mxCell id="e92Mt10qb9YVrok8DbHY-78" value="Feedback Manager" style="shape=module;align=left;spacingLeft=20;align=center;verticalAlign=top;whiteSpace=wrap;html=1;" vertex="1" parent="1">
          <mxGeometry x="10" y="195" width="100" height="50" as="geometry" />
        </mxCell>
        <mxCell id="e92Mt10qb9YVrok8DbHY-79" value="" style="endArrow=none;html=1;rounded=0;entryX=0.75;entryY=1;entryDx=0;entryDy=0;exitX=1;exitY=0.5;exitDx=0;exitDy=0;exitPerimeter=0;" edge="1" parent="1" source="e92Mt10qb9YVrok8DbHY-60" target="e92Mt10qb9YVrok8DbHY-78">
          <mxGeometry width="50" height="50" relative="1" as="geometry">
            <mxPoint x="180" y="350" as="sourcePoint" />
            <mxPoint x="190" y="270" as="targetPoint" />
          </mxGeometry>
        </mxCell>
        <mxCell id="e92Mt10qb9YVrok8DbHY-80" value="" style="endArrow=none;html=1;rounded=0;exitX=1;exitY=0.5;exitDx=0;exitDy=0;exitPerimeter=0;entryX=1;entryY=0.75;entryDx=0;entryDy=0;" edge="1" parent="1" source="e92Mt10qb9YVrok8DbHY-50" target="e92Mt10qb9YVrok8DbHY-78">
          <mxGeometry width="50" height="50" relative="1" as="geometry">
            <mxPoint x="140" y="340" as="sourcePoint" />
            <mxPoint x="150" y="260" as="targetPoint" />
          </mxGeometry>
        </mxCell>
        <mxCell id="e92Mt10qb9YVrok8DbHY-81" value="" style="shape=requiredInterface;html=1;verticalLabelPosition=bottom;sketch=0;rotation=-120;" vertex="1" parent="1">
          <mxGeometry x="70" y="255" width="10" height="20" as="geometry" />
        </mxCell>
        <mxCell id="e92Mt10qb9YVrok8DbHY-82" value="Database" style="text;html=1;align=center;verticalAlign=middle;whiteSpace=wrap;rounded=0;" vertex="1" parent="1">
          <mxGeometry y="250" width="60" height="30" as="geometry" />
        </mxCell>
        <mxCell id="e92Mt10qb9YVrok8DbHY-83" value="" style="endArrow=none;html=1;rounded=0;entryX=0.5;entryY=1;entryDx=0;entryDy=0;exitX=1;exitY=0.5;exitDx=0;exitDy=0;exitPerimeter=0;" edge="1" parent="1" source="e92Mt10qb9YVrok8DbHY-81" target="e92Mt10qb9YVrok8DbHY-78">
          <mxGeometry width="50" height="50" relative="1" as="geometry">
            <mxPoint x="50" y="310" as="sourcePoint" />
            <mxPoint x="100" y="260" as="targetPoint" />
          </mxGeometry>
        </mxCell>
        <mxCell id="e92Mt10qb9YVrok8DbHY-84" value="" style="shape=providedRequiredInterface;html=1;verticalLabelPosition=bottom;sketch=0;" vertex="1" parent="1">
          <mxGeometry x="140" y="248.5" width="20" height="20" as="geometry" />
        </mxCell>
        <mxCell id="e92Mt10qb9YVrok8DbHY-85" value="" style="endArrow=none;html=1;rounded=0;entryX=1;entryY=1;entryDx=0;entryDy=0;exitX=0;exitY=0.5;exitDx=0;exitDy=0;exitPerimeter=0;" edge="1" parent="1" source="e92Mt10qb9YVrok8DbHY-84" target="e92Mt10qb9YVrok8DbHY-78">
          <mxGeometry width="50" height="50" relative="1" as="geometry">
            <mxPoint x="120" y="370" as="sourcePoint" />
            <mxPoint x="170" y="320" as="targetPoint" />
          </mxGeometry>
        </mxCell>
        <mxCell id="e92Mt10qb9YVrok8DbHY-86" value="" style="endArrow=none;html=1;rounded=0;entryX=0;entryY=0;entryDx=0;entryDy=15;entryPerimeter=0;exitX=1;exitY=0.5;exitDx=0;exitDy=0;exitPerimeter=0;" edge="1" parent="1" source="e92Mt10qb9YVrok8DbHY-84" target="e92Mt10qb9YVrok8DbHY-33">
          <mxGeometry width="50" height="50" relative="1" as="geometry">
            <mxPoint x="430" y="330" as="sourcePoint" />
            <mxPoint x="480" y="280" as="targetPoint" />
          </mxGeometry>
        </mxCell>
        <mxCell id="e92Mt10qb9YVrok8DbHY-87" value="Feedback" style="text;html=1;align=center;verticalAlign=middle;whiteSpace=wrap;rounded=0;" vertex="1" parent="1">
          <mxGeometry x="140" y="275" width="43" height="17" as="geometry" />
        </mxCell>
        <mxCell id="e92Mt10qb9YVrok8DbHY-88" value="" style="endArrow=none;html=1;rounded=0;entryX=0;entryY=1;entryDx=10;entryDy=0;entryPerimeter=0;exitX=1;exitY=0.5;exitDx=0;exitDy=0;exitPerimeter=0;" edge="1" parent="1" source="e92Mt10qb9YVrok8DbHY-84" target="e92Mt10qb9YVrok8DbHY-15">
          <mxGeometry width="50" height="50" relative="1" as="geometry">
            <mxPoint x="250" y="280" as="sourcePoint" />
            <mxPoint x="300" y="230" as="targetPoint" />
          </mxGeometry>
        </mxCell>
        <mxCell id="e92Mt10qb9YVrok8DbHY-90" value="" style="endArrow=none;html=1;rounded=0;entryX=0;entryY=0;entryDx=10;entryDy=0;entryPerimeter=0;exitX=1;exitY=0.5;exitDx=0;exitDy=0;exitPerimeter=0;" edge="1" parent="1" source="e92Mt10qb9YVrok8DbHY-84" target="e92Mt10qb9YVrok8DbHY-47">
          <mxGeometry width="50" height="50" relative="1" as="geometry">
            <mxPoint x="360" y="390" as="sourcePoint" />
            <mxPoint x="410" y="340" as="targetPoint" />
          </mxGeometry>
        </mxCell>
        <mxCell id="e92Mt10qb9YVrok8DbHY-91" value="" style="shape=providedRequiredInterface;html=1;verticalLabelPosition=bottom;sketch=0;rotation=90;" vertex="1" parent="1">
          <mxGeometry x="137" y="252" width="20" height="20" as="geometry" />
        </mxCell>
        <mxCell id="e92Mt10qb9YVrok8DbHY-92" value="" style="endArrow=none;html=1;rounded=0;entryX=1;entryY=0.5;entryDx=0;entryDy=0;entryPerimeter=0;exitX=1;exitY=0;exitDx=0;exitDy=0;" edge="1" parent="1" source="e92Mt10qb9YVrok8DbHY-61" target="e92Mt10qb9YVrok8DbHY-91">
          <mxGeometry width="50" height="50" relative="1" as="geometry">
            <mxPoint x="90" y="330" as="sourcePoint" />
            <mxPoint x="140" y="280" as="targetPoint" />
          </mxGeometry>
        </mxCell>
        <mxCell id="e92Mt10qb9YVrok8DbHY-95" value="Stage monitoring" style="rounded=0;whiteSpace=wrap;html=1;" vertex="1" parent="1">
          <mxGeometry x="500" y="405" width="120" height="20" as="geometry" />
        </mxCell>
        <mxCell id="e92Mt10qb9YVrok8DbHY-96" value="Internship starting" style="rounded=0;whiteSpace=wrap;html=1;" vertex="1" parent="1">
          <mxGeometry x="500" y="435" width="120" height="20" as="geometry" />
        </mxCell>
        <mxCell id="e92Mt10qb9YVrok8DbHY-97" value="Monitoring" style="rounded=0;whiteSpace=wrap;html=1;" vertex="1" parent="1">
          <mxGeometry x="570" y="225" width="120" height="20" as="geometry" />
        </mxCell>
        <mxCell id="e92Mt10qb9YVrok8DbHY-98" value="Complaint Manager" style="shape=module;align=left;spacingLeft=20;align=center;verticalAlign=top;whiteSpace=wrap;html=1;" vertex="1" parent="1">
          <mxGeometry x="-30" y="420" width="100" height="50" as="geometry" />
        </mxCell>
        <mxCell id="e92Mt10qb9YVrok8DbHY-99" value="" style="shape=providedRequiredInterface;html=1;verticalLabelPosition=bottom;sketch=0;rotation=15;" vertex="1" parent="1">
          <mxGeometry x="90" y="450" width="20" height="20" as="geometry" />
        </mxCell>
        <mxCell id="e92Mt10qb9YVrok8DbHY-100" value="" style="endArrow=none;html=1;rounded=0;entryX=0;entryY=0.5;entryDx=0;entryDy=0;entryPerimeter=0;exitX=1;exitY=0.5;exitDx=0;exitDy=0;" edge="1" parent="1" source="e92Mt10qb9YVrok8DbHY-98" target="e92Mt10qb9YVrok8DbHY-99">
          <mxGeometry width="50" height="50" relative="1" as="geometry">
            <mxPoint x="10" y="530" as="sourcePoint" />
            <mxPoint x="60" y="480" as="targetPoint" />
          </mxGeometry>
        </mxCell>
        <mxCell id="e92Mt10qb9YVrok8DbHY-101" value="" style="endArrow=none;html=1;rounded=0;entryX=0;entryY=0;entryDx=10;entryDy=0;entryPerimeter=0;exitX=1;exitY=0.5;exitDx=0;exitDy=0;exitPerimeter=0;" edge="1" parent="1" source="e92Mt10qb9YVrok8DbHY-99" target="PVoQKursZOhQ71wTzp3r-7">
          <mxGeometry width="50" height="50" relative="1" as="geometry">
            <mxPoint x="70" y="530" as="sourcePoint" />
            <mxPoint x="120" y="480" as="targetPoint" />
          </mxGeometry>
        </mxCell>
        <mxCell id="e92Mt10qb9YVrok8DbHY-102" value="Complaint" style="text;html=1;align=center;verticalAlign=middle;whiteSpace=wrap;rounded=0;" vertex="1" parent="1">
          <mxGeometry x="70" y="465" width="60" height="30" as="geometry" />
        </mxCell>
        <mxCell id="e92Mt10qb9YVrok8DbHY-103" value="" style="endArrow=none;html=1;rounded=0;entryX=1;entryY=0.5;entryDx=0;entryDy=0;entryPerimeter=0;exitX=1;exitY=0.5;exitDx=0;exitDy=0;" edge="1" parent="1" source="e92Mt10qb9YVrok8DbHY-98" target="e92Mt10qb9YVrok8DbHY-60">
          <mxGeometry width="50" height="50" relative="1" as="geometry">
            <mxPoint x="130" y="440" as="sourcePoint" />
            <mxPoint x="180" y="390" as="targetPoint" />
          </mxGeometry>
        </mxCell>
        <mxCell id="e92Mt10qb9YVrok8DbHY-104" value="" style="endArrow=none;html=1;rounded=0;entryX=1;entryY=0.5;entryDx=0;entryDy=0;entryPerimeter=0;exitX=1;exitY=0.5;exitDx=0;exitDy=0;" edge="1" parent="1" source="e92Mt10qb9YVrok8DbHY-98" target="e92Mt10qb9YVrok8DbHY-50">
          <mxGeometry width="50" height="50" relative="1" as="geometry">
            <mxPoint x="150" y="460" as="sourcePoint" />
            <mxPoint x="200" y="410" as="targetPoint" />
          </mxGeometry>
        </mxCell>
        <mxCell id="e92Mt10qb9YVrok8DbHY-105" value="" style="shape=requiredInterface;html=1;verticalLabelPosition=bottom;sketch=0;rotation=-120;" vertex="1" parent="1">
          <mxGeometry x="20" y="486" width="10" height="20" as="geometry" />
        </mxCell>
        <mxCell id="e92Mt10qb9YVrok8DbHY-106" value="Database" style="text;html=1;align=center;verticalAlign=middle;whiteSpace=wrap;rounded=0;" vertex="1" parent="1">
          <mxGeometry x="20" y="494" width="60" height="30" as="geometry" />
        </mxCell>
        <mxCell id="e92Mt10qb9YVrok8DbHY-107" value="" style="endArrow=none;html=1;rounded=0;entryX=0.5;entryY=1;entryDx=0;entryDy=0;exitX=1;exitY=0.5;exitDx=0;exitDy=0;exitPerimeter=0;" edge="1" parent="1" source="e92Mt10qb9YVrok8DbHY-105" target="e92Mt10qb9YVrok8DbHY-98">
          <mxGeometry width="50" height="50" relative="1" as="geometry">
            <mxPoint x="-70" y="560" as="sourcePoint" />
            <mxPoint x="-20" y="510" as="targetPoint" />
          </mxGeometry>
        </mxCell>
        <mxCell id="e92Mt10qb9YVrok8DbHY-109" value="" style="shape=providedRequiredInterface;html=1;verticalLabelPosition=bottom;sketch=0;rotation=90;" vertex="1" parent="1">
          <mxGeometry x="170" y="565" width="20" height="20" as="geometry" />
        </mxCell>
        <mxCell id="e92Mt10qb9YVrok8DbHY-111" value="" style="endArrow=none;html=1;rounded=0;entryX=0.296;entryY=1.013;entryDx=0;entryDy=0;exitX=0;exitY=0.5;exitDx=0;exitDy=0;exitPerimeter=0;entryPerimeter=0;" edge="1" parent="1" source="e92Mt10qb9YVrok8DbHY-109" target="PVoQKursZOhQ71wTzp3r-7">
          <mxGeometry width="50" height="50" relative="1" as="geometry">
            <mxPoint x="120" y="620" as="sourcePoint" />
            <mxPoint x="170" y="570" as="targetPoint" />
          </mxGeometry>
        </mxCell>
      </root>
    </mxGraphModel>
  </diagram>
</mxfile>
